# xmcd
#
# Track frame offsets:
#	150
#	10070
#	21617
#	31647
#	42155
#	50885
#	63745
#	75602
#	86925
#	98042
#	109375
#	119657
#	130765
#	140142
#	151110
#	162177
#	170632
#	185300
#	195402
#	206082
#	215215
#	222640
#	230767
#	238437
#	247895
#	258855
#	269030
#	279000
#	291005
#	302565
#
# Disc length: 4220 seconds
#
# Revision: 1
# Processed by: cddbd v1.5.2PL0 Copyright (c) Steve Scherf et al.
# Submitted via: audiograbber 1.83.01
#
DISCID=ca107a1e
DTITLE=Frankie Miller - Blackland Farmer: The Complete Starday Recordings, And 
DTITLE=More
DYEAR=2008
DGENRE=Country
TTITLE0=Gotta Win My Baby Back Again
TTITLE1=The Picture At St. Helene
TTITLE2=Losing By A Hair
TTITLE3=I Miss Her Every Way
TTITLE4=One Excuse Is As Good As Another
TTITLE5=The Party's Over
TTITLE6=Too Hot To Handle
TTITLE7=A Little South Of Memphis
TTITLE8=Fifteen Acres of Peanut Land
TTITLE9=Out Of This World
TTITLE10=Mean Old Greyhound Dog
TTITLE11=It Took A Lot Of Love (To Let Her Go)
TTITLE12=Starving For Love
TTITLE13=I Can Almost Forget
TTITLE14=Big Talk Of The Town (Single Version)
TTITLE15=Truck Driving Buddy
TTITLE16=Bringing Mary Home
TTITLE17=The Country Music Who's Who
TTITLE18=A Tough Row To Hoe
TTITLE19=Charlie's Got A Good Thing Going
TTITLE20=She's My Antibiotic (In White)
TTITLE21=Fickle Hand Of Fate
TTITLE22=True Love Stays
TTITLE23=Starving For Love (alt)
TTITLE24=Maybe You Would Love Me Then
TTITLE25=It Took A Lot Of Love (To Let Her Go) (alt)
TTITLE26=Pain
TTITLE27=I Put The Blue In Her Eyes
TTITLE28=Wrong Side Of The Tracks
TTITLE29=World War III
EXTD=Bear Family\n
EXTT0=
EXTT1=
EXTT2=
EXTT3=
EXTT4=
EXTT5=
EXTT6=
EXTT7=
EXTT8=
EXTT9=
EXTT10=
EXTT11=
EXTT12=
EXTT13=
EXTT14=
EXTT15=
EXTT16=
EXTT17=
EXTT18=
EXTT19=
EXTT20=
EXTT21=
EXTT22=
EXTT23=
EXTT24=
EXTT25=
EXTT26=
EXTT27=
EXTT28=
EXTT29=
PLAYORDER=
